# xmcd
#
# Track frame offsets: 
#        150
#        17666
#        39931
#        58724
#        76922
#        92321
#        106881
#        125998
#        144938
#
# Disc length: 2184 seconds
#
# Revision: 0
# Processed by: cddbd v1.5.2PL0 Copyright (c) Steve Scherf et al.
# Submitted via: ExactAudioCopy v0.99pb4
#
DISCID=67088609
DTITLE=Horace Silver Quintet - That Healin' Feelin'
DYEAR=1970
DGENRE=Jazz
TTITLE0=That Healin' Feelin'
TTITLE1=The Happy Medium
TTITLE2=The Show Has Begun
TTITLE3=Love Vibrations
TTITLE4=Peace
TTITLE5=Permit Me To Introduce You To Yourself
TTITLE6=Wipe Away The Evil
TTITLE7=Nobody Knows
TTITLE8=There's Much To Be Done
EXTD=
EXTT0=
EXTT1=
EXTT2=
EXTT3=
EXTT4=
EXTT5=
EXTT6=
EXTT7=
EXTT8=
PLAYORDER=
